<?xml version="1.0" encoding="utf-8"?>
<svg xmlns="http://www.w3.org/2000/svg" viewBox="60 63.6661 117.3828 109.4607" width="117.383px" height="109.461px" preserveAspectRatio="none"><path d="M 111.525 68.223 C 106.457 77.701, 88.985 108.043, 75.799 130.268 C 61.222 154.835, 60 157.357, 60 162.879 C 60 166.034, 60.601 167.328, 63.005 169.351 C 67.129 172.821, 70.919 173.192, 98.500 172.822 C 119.341 172.542, 122.934 172.263, 125.801 170.698 C 127.617 169.706, 129.362 168.221, 129.678 167.397 C 130.911 164.185, 140.147 149.512, 140.804 149.723 C 141.187 149.845, 143.750 154.327, 146.500 159.682 C 152.578 171.519, 154.375 172.813, 165 173.009 C 178.688 173.260, 178.078 173.407, 176.702 170.193 C 176.041 168.650, 171.865 161.337, 167.423 153.943 C 162.981 146.549, 156.791 136.143, 153.668 130.819 C 147.475 120.259, 144.233 117, 139.921 117 C 135.749 117, 132.829 120.261, 125.591 133 C 121.998 139.325, 117.577 146.750, 115.768 149.500 L 112.478 154.500 100.489 155.230 C 93.895 155.632, 87.922 155.753, 87.215 155.498 C 85.517 154.887, 86.049 153.888, 103.990 123.977 C 112.080 110.490, 120.589 96.011, 122.898 91.803 L 127.098 84.152 121.454 74.326 C 118.351 68.922, 115.482 64.151, 115.079 63.723 C 114.676 63.296, 113.077 65.321, 111.525 68.223" fill-rule="evenodd" style="paint-order: fill; fill: rgb(255, 255, 255); vector-effect: non-scaling-stroke; stroke-width: 3px; stroke: rgba(0, 0, 0, 0.125);" id="object-0" transform="matrix(1, 0, 0, 1, 0, -3.552713678800501e-15)"/></svg>